<svg width="237" height="15" viewBox="0 0 237 15" fill="none" xmlns="http://www.w3.org/2000/svg">
<path d="M3.46525 7.535L3.70525 9.275H3.72025L3.97525 7.505L6.13525 0.499999H6.73525L8.91025 7.535L9.16525 9.275H9.18025L9.45025 7.505L11.2203 0.499999H12.4353L9.51025 11.165H8.82025L6.69025 4.13L6.42025 2.54H6.34525L6.07525 4.145L3.94525 11.165H3.25525L0.255254 0.499999H1.57525L3.46525 7.535ZM18.5572 10.4C18.2572 10.64 17.8772 10.83 17.4172 10.97C16.9672 11.11 16.4872 11.18 15.9772 11.18C15.4072 11.18 14.9122 11.09 14.4922 10.91C14.0722 10.72 13.7272 10.455 13.4572 10.115C13.1872 9.765 12.9872 9.35 12.8572 8.87C12.7272 8.39 12.6622 7.85 12.6622 7.25C12.6622 5.97 12.9472 4.995 13.5172 4.325C14.0872 3.655 14.9022 3.32 15.9622 3.32C16.3022 3.32 16.6422 3.36 16.9822 3.44C17.3222 3.51 17.6272 3.65 17.8972 3.86C18.1672 4.07 18.3872 4.37 18.5572 4.76C18.7272 5.14 18.8122 5.645 18.8122 6.275C18.8122 6.605 18.7822 6.97 18.7222 7.37H13.9072C13.9072 7.81 13.9522 8.2 14.0422 8.54C14.1322 8.88 14.2722 9.17 14.4622 9.41C14.6522 9.64 14.8972 9.82 15.1972 9.95C15.5072 10.07 15.8822 10.13 16.3222 10.13C16.6622 10.13 17.0022 10.07 17.3422 9.95C17.6822 9.83 17.9372 9.69 18.1072 9.53L18.5572 10.4ZM15.9772 4.37C15.3872 4.37 14.9122 4.525 14.5522 4.835C14.2022 5.145 13.9922 5.675 13.9222 6.425H17.6422C17.6422 5.665 17.4972 5.135 17.2072 4.835C16.9172 4.525 16.5072 4.37 15.9772 4.37ZM29.8135 10.505C29.5135 10.725 29.1585 10.89 28.7485 11C28.3385 11.12 27.9085 11.18 27.4585 11.18C26.8785 11.18 26.3885 11.09 25.9885 10.91C25.5885 10.72 25.2585 10.455 24.9985 10.115C24.7485 9.765 24.5635 9.35 24.4435 8.87C24.3335 8.38 24.2785 7.84 24.2785 7.25C24.2785 5.98 24.5585 5.01 25.1185 4.34C25.6785 3.66 26.4835 3.32 27.5335 3.32C28.0135 3.32 28.4185 3.36 28.7485 3.44C29.0885 3.51 29.3935 3.615 29.6635 3.755L29.3185 4.79C29.0885 4.66 28.8335 4.56 28.5535 4.49C28.2735 4.41 27.9735 4.37 27.6535 4.37C26.2335 4.37 25.5235 5.33 25.5235 7.25C25.5235 7.63 25.5585 7.995 25.6285 8.345C25.7085 8.685 25.8335 8.99 26.0035 9.26C26.1835 9.52 26.4135 9.73 26.6935 9.89C26.9835 10.05 27.3385 10.13 27.7585 10.13C28.1185 10.13 28.4385 10.075 28.7185 9.965C29.0085 9.855 29.2435 9.73 29.4235 9.59L29.8135 10.505ZM31.346 4.055C31.726 3.825 32.166 3.655 32.666 3.545C33.176 3.435 33.706 3.38 34.256 3.38C34.776 3.38 35.191 3.45 35.501 3.59C35.821 3.73 36.061 3.915 36.221 4.145C36.391 4.365 36.501 4.61 36.551 4.88C36.611 5.15 36.641 5.42 36.641 5.69C36.641 6.29 36.626 6.875 36.596 7.445C36.566 8.015 36.551 8.555 36.551 9.065C36.551 9.435 36.566 9.785 36.596 10.115C36.626 10.445 36.681 10.75 36.761 11.03H35.876L35.561 9.98H35.486C35.396 10.12 35.281 10.26 35.141 10.4C35.011 10.53 34.851 10.65 34.661 10.76C34.471 10.86 34.251 10.945 34.001 11.015C33.751 11.085 33.466 11.12 33.146 11.12C32.826 11.12 32.526 11.07 32.246 10.97C31.976 10.87 31.741 10.73 31.541 10.55C31.341 10.36 31.181 10.135 31.061 9.875C30.951 9.615 30.896 9.32 30.896 8.99C30.896 8.55 30.986 8.185 31.166 7.895C31.346 7.595 31.596 7.36 31.916 7.19C32.246 7.01 32.636 6.885 33.086 6.815C33.546 6.735 34.051 6.695 34.601 6.695C34.741 6.695 34.876 6.695 35.006 6.695C35.146 6.695 35.286 6.705 35.426 6.725C35.456 6.425 35.471 6.155 35.471 5.915C35.471 5.365 35.361 4.98 35.141 4.76C34.921 4.54 34.521 4.43 33.941 4.43C33.771 4.43 33.586 4.445 33.386 4.475C33.196 4.495 32.996 4.53 32.786 4.58C32.586 4.62 32.391 4.675 32.201 4.745C32.021 4.805 31.861 4.875 31.721 4.955L31.346 4.055ZM33.476 10.07C33.756 10.07 34.006 10.035 34.226 9.965C34.446 9.885 34.636 9.79 34.796 9.68C34.956 9.56 35.086 9.43 35.186 9.29C35.296 9.15 35.376 9.015 35.426 8.885V7.64C35.286 7.63 35.141 7.625 34.991 7.625C34.851 7.615 34.711 7.61 34.571 7.61C34.261 7.61 33.956 7.63 33.656 7.67C33.366 7.7 33.106 7.765 32.876 7.865C32.656 7.955 32.476 8.085 32.336 8.255C32.206 8.415 32.141 8.62 32.141 8.87C32.141 9.22 32.266 9.51 32.516 9.74C32.766 9.96 33.086 10.07 33.476 10.07ZM40.2424 9.155C40.2424 9.505 40.3024 9.755 40.4224 9.905C40.5424 10.055 40.7124 10.13 40.9324 10.13C41.0624 10.13 41.2024 10.12 41.3524 10.1C41.5024 10.08 41.6724 10.035 41.8624 9.965L41.9974 10.91C41.8374 10.99 41.6124 11.055 41.3224 11.105C41.0424 11.155 40.7974 11.18 40.5874 11.18C40.1374 11.18 39.7674 11.055 39.4774 10.805C39.1874 10.545 39.0424 10.11 39.0424 9.5V0.499999H40.2424V9.155ZM44.6223 9.155C44.6223 9.505 44.6823 9.755 44.8023 9.905C44.9223 10.055 45.0923 10.13 45.3123 10.13C45.4423 10.13 45.5823 10.12 45.7323 10.1C45.8823 10.08 46.0523 10.035 46.2423 9.965L46.3773 10.91C46.2173 10.99 45.9923 11.055 45.7023 11.105C45.4223 11.155 45.1773 11.18 44.9673 11.18C44.5173 11.18 44.1473 11.055 43.8573 10.805C43.5673 10.545 43.4223 10.11 43.4223 9.5V0.499999H44.6223V9.155ZM53.6662 8.36L54.0862 9.8H54.1612L54.4912 8.345L55.9462 3.5H57.1612L54.9412 10.235C54.7712 10.725 54.6012 11.2 54.4312 11.66C54.2712 12.12 54.0912 12.53 53.8912 12.89C53.6912 13.25 53.4662 13.535 53.2162 13.745C52.9662 13.965 52.6762 14.075 52.3462 14.075C51.9862 14.075 51.6912 14.025 51.4612 13.925L51.6712 12.89C51.8012 12.94 51.9262 12.965 52.0462 12.965C52.3262 12.965 52.5962 12.815 52.8562 12.515C53.1162 12.225 53.3312 11.72 53.5012 11L50.4862 3.5H51.8662L53.6662 8.36ZM57.8673 7.25C57.8673 5.98 58.1473 5.01 58.7073 4.34C59.2773 3.66 60.0923 3.32 61.1523 3.32C61.7123 3.32 62.1973 3.415 62.6073 3.605C63.0273 3.785 63.3723 4.05 63.6423 4.4C63.9123 4.74 64.1123 5.155 64.2423 5.645C64.3723 6.125 64.4373 6.66 64.4373 7.25C64.4373 8.52 64.1523 9.495 63.5823 10.175C63.0223 10.845 62.2123 11.18 61.1523 11.18C60.5923 11.18 60.1023 11.09 59.6823 10.91C59.2723 10.72 58.9323 10.455 58.6623 10.115C58.3923 9.765 58.1923 9.35 58.0623 8.87C57.9323 8.38 57.8673 7.84 57.8673 7.25ZM59.1123 7.25C59.1123 7.63 59.1473 7.995 59.2173 8.345C59.2973 8.695 59.4173 9 59.5773 9.26C59.7373 9.52 59.9473 9.73 60.2073 9.89C60.4673 10.05 60.7823 10.13 61.1523 10.13C62.5123 10.14 63.1923 9.18 63.1923 7.25C63.1923 6.86 63.1523 6.49 63.0723 6.14C63.0023 5.79 62.8873 5.485 62.7273 5.225C62.5673 4.965 62.3573 4.76 62.0973 4.61C61.8373 4.45 61.5223 4.37 61.1523 4.37C59.7923 4.36 59.1123 5.32 59.1123 7.25ZM67.4093 3.5V7.775C67.4093 8.165 67.4293 8.51 67.4693 8.81C67.5193 9.1 67.5993 9.345 67.7093 9.545C67.8193 9.735 67.9693 9.88 68.1593 9.98C68.3493 10.08 68.5893 10.13 68.8793 10.13C69.1493 10.13 69.3893 10.09 69.5993 10.01C69.8093 9.92 69.9943 9.8 70.1543 9.65C70.3243 9.5 70.4693 9.33 70.5893 9.14C70.7193 8.94 70.8243 8.73 70.9043 8.51V3.5H72.1043V8.87C72.1043 9.23 72.1143 9.605 72.1343 9.995C72.1643 10.375 72.2093 10.71 72.2693 11H71.4443L71.1443 9.815H71.0693C70.8393 10.205 70.5293 10.53 70.1393 10.79C69.7493 11.05 69.2543 11.18 68.6543 11.18C68.2543 11.18 67.8993 11.13 67.5893 11.03C67.2893 10.94 67.0343 10.775 66.8243 10.535C66.6243 10.295 66.4693 9.975 66.3593 9.575C66.2593 9.165 66.2093 8.65 66.2093 8.03V3.5H67.4093ZM78.4143 0.499999H79.6143V4.235H79.6743C79.9043 3.945 80.1943 3.72 80.5443 3.56C80.9043 3.4 81.2943 3.32 81.7143 3.32C82.6843 3.32 83.4093 3.63 83.8893 4.25C84.3793 4.87 84.6243 5.83 84.6243 7.13C84.6243 8.44 84.3043 9.435 83.6643 10.115C83.0243 10.795 82.1243 11.135 80.9643 11.135C80.4043 11.135 79.8943 11.075 79.4343 10.955C78.9843 10.835 78.6443 10.705 78.4143 10.565V0.499999ZM81.5043 4.37C81.0043 4.37 80.5993 4.51 80.2893 4.79C79.9793 5.07 79.7543 5.465 79.6143 5.975V9.755C79.8043 9.865 80.0343 9.95 80.3043 10.01C80.5743 10.06 80.8543 10.085 81.1443 10.085C81.8243 10.085 82.3643 9.845 82.7643 9.365C83.1743 8.885 83.3793 8.135 83.3793 7.115C83.3793 6.725 83.3443 6.36 83.2743 6.02C83.2043 5.68 83.0943 5.39 82.9443 5.15C82.7943 4.91 82.5993 4.72 82.3593 4.58C82.1293 4.44 81.8443 4.37 81.5043 4.37ZM86.3949 4.055C86.7749 3.825 87.2149 3.655 87.7149 3.545C88.2249 3.435 88.7549 3.38 89.3049 3.38C89.8249 3.38 90.2399 3.45 90.5499 3.59C90.8699 3.73 91.1099 3.915 91.2699 4.145C91.4399 4.365 91.5499 4.61 91.5999 4.88C91.6599 5.15 91.6899 5.42 91.6899 5.69C91.6899 6.29 91.6749 6.875 91.6449 7.445C91.6149 8.015 91.5999 8.555 91.5999 9.065C91.5999 9.435 91.6149 9.785 91.6449 10.115C91.6749 10.445 91.7299 10.75 91.8099 11.03H90.9249L90.6099 9.98H90.5349C90.4449 10.12 90.3299 10.26 90.1899 10.4C90.0599 10.53 89.8999 10.65 89.7099 10.76C89.5199 10.86 89.2999 10.945 89.0499 11.015C88.7999 11.085 88.5149 11.12 88.1949 11.12C87.8749 11.12 87.5749 11.07 87.2949 10.97C87.0249 10.87 86.7899 10.73 86.5899 10.55C86.3899 10.36 86.2299 10.135 86.1099 9.875C85.9999 9.615 85.9449 9.32 85.9449 8.99C85.9449 8.55 86.0349 8.185 86.2149 7.895C86.3949 7.595 86.6449 7.36 86.9649 7.19C87.2949 7.01 87.6849 6.885 88.1349 6.815C88.5949 6.735 89.0999 6.695 89.6499 6.695C89.7899 6.695 89.9249 6.695 90.0549 6.695C90.1949 6.695 90.3349 6.705 90.4749 6.725C90.5049 6.425 90.5199 6.155 90.5199 5.915C90.5199 5.365 90.4099 4.98 90.1899 4.76C89.9699 4.54 89.5699 4.43 88.9899 4.43C88.8199 4.43 88.6349 4.445 88.4349 4.475C88.2449 4.495 88.0449 4.53 87.8349 4.58C87.6349 4.62 87.4399 4.675 87.2499 4.745C87.0699 4.805 86.9099 4.875 86.7699 4.955L86.3949 4.055ZM88.5249 10.07C88.8049 10.07 89.0549 10.035 89.2749 9.965C89.4949 9.885 89.6849 9.79 89.8449 9.68C90.0049 9.56 90.1349 9.43 90.2349 9.29C90.3449 9.15 90.4249 9.015 90.4749 8.885V7.64C90.3349 7.63 90.1899 7.625 90.0399 7.625C89.8999 7.615 89.7599 7.61 89.6199 7.61C89.3099 7.61 89.0049 7.63 88.7049 7.67C88.4149 7.7 88.1549 7.765 87.9249 7.865C87.7049 7.955 87.5249 8.085 87.3849 8.255C87.2549 8.415 87.1899 8.62 87.1899 8.87C87.1899 9.22 87.3149 9.51 87.5649 9.74C87.8149 9.96 88.1349 10.07 88.5249 10.07ZM99.0713 10.505C98.7713 10.725 98.4163 10.89 98.0063 11C97.5963 11.12 97.1663 11.18 96.7163 11.18C96.1363 11.18 95.6463 11.09 95.2463 10.91C94.8463 10.72 94.5163 10.455 94.2563 10.115C94.0063 9.765 93.8213 9.35 93.7013 8.87C93.5913 8.38 93.5363 7.84 93.5363 7.25C93.5363 5.98 93.8163 5.01 94.3763 4.34C94.9363 3.66 95.7413 3.32 96.7913 3.32C97.2713 3.32 97.6763 3.36 98.0063 3.44C98.3463 3.51 98.6513 3.615 98.9213 3.755L98.5763 4.79C98.3463 4.66 98.0913 4.56 97.8113 4.49C97.5313 4.41 97.2313 4.37 96.9113 4.37C95.4913 4.37 94.7813 5.33 94.7813 7.25C94.7813 7.63 94.8163 7.995 94.8863 8.345C94.9663 8.685 95.0913 8.99 95.2613 9.26C95.4413 9.52 95.6713 9.73 95.9513 9.89C96.2413 10.05 96.5963 10.13 97.0163 10.13C97.3763 10.13 97.6963 10.075 97.9763 9.965C98.2663 9.855 98.5013 9.73 98.6813 9.59L99.0713 10.505ZM102.614 7.625H101.924V11H100.724V0.499999H101.924V6.89L102.539 6.68L104.864 3.5H106.259L103.964 6.515L103.349 7.01L104.099 7.61L106.604 11H105.119L102.614 7.625ZM111.327 4.055C111.707 3.825 112.147 3.655 112.647 3.545C113.157 3.435 113.687 3.38 114.237 3.38C114.757 3.38 115.172 3.45 115.482 3.59C115.802 3.73 116.042 3.915 116.202 4.145C116.372 4.365 116.482 4.61 116.532 4.88C116.592 5.15 116.622 5.42 116.622 5.69C116.622 6.29 116.607 6.875 116.577 7.445C116.547 8.015 116.532 8.555 116.532 9.065C116.532 9.435 116.547 9.785 116.577 10.115C116.607 10.445 116.662 10.75 116.742 11.03H115.857L115.542 9.98H115.467C115.377 10.12 115.262 10.26 115.122 10.4C114.992 10.53 114.832 10.65 114.642 10.76C114.452 10.86 114.232 10.945 113.982 11.015C113.732 11.085 113.447 11.12 113.127 11.12C112.807 11.12 112.507 11.07 112.227 10.97C111.957 10.87 111.722 10.73 111.522 10.55C111.322 10.36 111.162 10.135 111.042 9.875C110.932 9.615 110.877 9.32 110.877 8.99C110.877 8.55 110.967 8.185 111.147 7.895C111.327 7.595 111.577 7.36 111.897 7.19C112.227 7.01 112.617 6.885 113.067 6.815C113.527 6.735 114.032 6.695 114.582 6.695C114.722 6.695 114.857 6.695 114.987 6.695C115.127 6.695 115.267 6.705 115.407 6.725C115.437 6.425 115.452 6.155 115.452 5.915C115.452 5.365 115.342 4.98 115.122 4.76C114.902 4.54 114.502 4.43 113.922 4.43C113.752 4.43 113.567 4.445 113.367 4.475C113.177 4.495 112.977 4.53 112.767 4.58C112.567 4.62 112.372 4.675 112.182 4.745C112.002 4.805 111.842 4.875 111.702 4.955L111.327 4.055ZM113.457 10.07C113.737 10.07 113.987 10.035 114.207 9.965C114.427 9.885 114.617 9.79 114.777 9.68C114.937 9.56 115.067 9.43 115.167 9.29C115.277 9.15 115.357 9.015 115.407 8.885V7.64C115.267 7.63 115.122 7.625 114.972 7.625C114.832 7.615 114.692 7.61 114.552 7.61C114.242 7.61 113.937 7.63 113.637 7.67C113.347 7.7 113.087 7.765 112.857 7.865C112.637 7.955 112.457 8.085 112.317 8.255C112.187 8.415 112.122 8.62 112.122 8.87C112.122 9.22 112.247 9.51 112.497 9.74C112.747 9.96 113.067 10.07 113.457 10.07ZM122.188 8.96C122.188 8.66 122.098 8.425 121.918 8.255C121.738 8.085 121.513 7.945 121.243 7.835C120.983 7.715 120.693 7.605 120.373 7.505C120.063 7.395 119.773 7.26 119.503 7.1C119.243 6.93 119.023 6.715 118.843 6.455C118.663 6.195 118.573 5.845 118.573 5.405C118.573 4.685 118.778 4.16 119.188 3.83C119.598 3.49 120.168 3.32 120.898 3.32C121.438 3.32 121.888 3.37 122.248 3.47C122.618 3.56 122.938 3.67 123.208 3.8L122.923 4.79C122.693 4.68 122.413 4.585 122.083 4.505C121.763 4.415 121.418 4.37 121.048 4.37C120.608 4.37 120.283 4.445 120.073 4.595C119.873 4.745 119.773 5.005 119.773 5.375C119.773 5.635 119.863 5.84 120.043 5.99C120.223 6.13 120.443 6.26 120.703 6.38C120.973 6.49 121.263 6.6 121.573 6.71C121.893 6.82 122.183 6.965 122.443 7.145C122.713 7.325 122.938 7.555 123.118 7.835C123.298 8.105 123.388 8.465 123.388 8.915C123.388 9.235 123.333 9.535 123.223 9.815C123.123 10.095 122.963 10.335 122.743 10.535C122.523 10.735 122.248 10.89 121.918 11C121.598 11.12 121.218 11.18 120.778 11.18C120.208 11.18 119.723 11.125 119.323 11.015C118.923 10.905 118.588 10.775 118.318 10.625L118.678 9.605C118.908 9.735 119.208 9.855 119.578 9.965C119.948 10.075 120.323 10.13 120.703 10.13C121.133 10.13 121.488 10.045 121.768 9.875C122.048 9.705 122.188 9.4 122.188 8.96ZM132.5 8.96C132.5 8.66 132.41 8.425 132.23 8.255C132.05 8.085 131.825 7.945 131.555 7.835C131.295 7.715 131.005 7.605 130.685 7.505C130.375 7.395 130.085 7.26 129.815 7.1C129.555 6.93 129.335 6.715 129.155 6.455C128.975 6.195 128.885 5.845 128.885 5.405C128.885 4.685 129.09 4.16 129.5 3.83C129.91 3.49 130.48 3.32 131.21 3.32C131.75 3.32 132.2 3.37 132.56 3.47C132.93 3.56 133.25 3.67 133.52 3.8L133.235 4.79C133.005 4.68 132.725 4.585 132.395 4.505C132.075 4.415 131.73 4.37 131.36 4.37C130.92 4.37 130.595 4.445 130.385 4.595C130.185 4.745 130.085 5.005 130.085 5.375C130.085 5.635 130.175 5.84 130.355 5.99C130.535 6.13 130.755 6.26 131.015 6.38C131.285 6.49 131.575 6.6 131.885 6.71C132.205 6.82 132.495 6.965 132.755 7.145C133.025 7.325 133.25 7.555 133.43 7.835C133.61 8.105 133.7 8.465 133.7 8.915C133.7 9.235 133.645 9.535 133.535 9.815C133.435 10.095 133.275 10.335 133.055 10.535C132.835 10.735 132.56 10.89 132.23 11C131.91 11.12 131.53 11.18 131.09 11.18C130.52 11.18 130.035 11.125 129.635 11.015C129.235 10.905 128.9 10.775 128.63 10.625L128.99 9.605C129.22 9.735 129.52 9.855 129.89 9.965C130.26 10.075 130.635 10.13 131.015 10.13C131.445 10.13 131.8 10.045 132.08 9.875C132.36 9.705 132.5 9.4 132.5 8.96ZM135.094 7.25C135.094 5.98 135.374 5.01 135.934 4.34C136.504 3.66 137.319 3.32 138.379 3.32C138.939 3.32 139.424 3.415 139.834 3.605C140.254 3.785 140.599 4.05 140.869 4.4C141.139 4.74 141.339 5.155 141.469 5.645C141.599 6.125 141.664 6.66 141.664 7.25C141.664 8.52 141.379 9.495 140.809 10.175C140.249 10.845 139.439 11.18 138.379 11.18C137.819 11.18 137.329 11.09 136.909 10.91C136.499 10.72 136.159 10.455 135.889 10.115C135.619 9.765 135.419 9.35 135.289 8.87C135.159 8.38 135.094 7.84 135.094 7.25ZM136.339 7.25C136.339 7.63 136.374 7.995 136.444 8.345C136.524 8.695 136.644 9 136.804 9.26C136.964 9.52 137.174 9.73 137.434 9.89C137.694 10.05 138.009 10.13 138.379 10.13C139.739 10.14 140.419 9.18 140.419 7.25C140.419 6.86 140.379 6.49 140.299 6.14C140.229 5.79 140.114 5.485 139.954 5.225C139.794 4.965 139.584 4.76 139.324 4.61C139.064 4.45 138.749 4.37 138.379 4.37C137.019 4.36 136.339 5.32 136.339 7.25ZM143.136 7.25C143.136 5.98 143.416 5.01 143.976 4.34C144.546 3.66 145.361 3.32 146.421 3.32C146.981 3.32 147.466 3.415 147.876 3.605C148.296 3.785 148.641 4.05 148.911 4.4C149.181 4.74 149.381 5.155 149.511 5.645C149.641 6.125 149.706 6.66 149.706 7.25C149.706 8.52 149.421 9.495 148.851 10.175C148.291 10.845 147.481 11.18 146.421 11.18C145.861 11.18 145.371 11.09 144.951 10.91C144.541 10.72 144.201 10.455 143.931 10.115C143.661 9.765 143.461 9.35 143.331 8.87C143.201 8.38 143.136 7.84 143.136 7.25ZM144.381 7.25C144.381 7.63 144.416 7.995 144.486 8.345C144.566 8.695 144.686 9 144.846 9.26C145.006 9.52 145.216 9.73 145.476 9.89C145.736 10.05 146.051 10.13 146.421 10.13C147.781 10.14 148.461 9.18 148.461 7.25C148.461 6.86 148.421 6.49 148.341 6.14C148.271 5.79 148.156 5.485 147.996 5.225C147.836 4.965 147.626 4.76 147.366 4.61C147.106 4.45 146.791 4.37 146.421 4.37C145.061 4.36 144.381 5.32 144.381 7.25ZM156.413 11V6.725C156.413 5.945 156.298 5.36 156.068 4.97C155.848 4.57 155.438 4.37 154.838 4.37C154.308 4.37 153.868 4.515 153.518 4.805C153.178 5.085 152.938 5.44 152.798 5.87V11H151.598V3.5H152.438L152.663 4.415H152.723C152.963 4.095 153.283 3.835 153.683 3.635C154.093 3.425 154.578 3.32 155.138 3.32C155.548 3.32 155.908 3.37 156.218 3.47C156.528 3.56 156.783 3.725 156.983 3.965C157.193 4.205 157.348 4.53 157.448 4.94C157.558 5.34 157.613 5.85 157.613 6.47V11H156.413ZM163.68 4.055C164.06 3.825 164.5 3.655 165 3.545C165.51 3.435 166.04 3.38 166.59 3.38C167.11 3.38 167.525 3.45 167.835 3.59C168.155 3.73 168.395 3.915 168.555 4.145C168.725 4.365 168.835 4.61 168.885 4.88C168.945 5.15 168.975 5.42 168.975 5.69C168.975 6.29 168.96 6.875 168.93 7.445C168.9 8.015 168.885 8.555 168.885 9.065C168.885 9.435 168.9 9.785 168.93 10.115C168.96 10.445 169.015 10.75 169.095 11.03H168.21L167.895 9.98H167.82C167.73 10.12 167.615 10.26 167.475 10.4C167.345 10.53 167.185 10.65 166.995 10.76C166.805 10.86 166.585 10.945 166.335 11.015C166.085 11.085 165.8 11.12 165.48 11.12C165.16 11.12 164.86 11.07 164.58 10.97C164.31 10.87 164.075 10.73 163.875 10.55C163.675 10.36 163.515 10.135 163.395 9.875C163.285 9.615 163.23 9.32 163.23 8.99C163.23 8.55 163.32 8.185 163.5 7.895C163.68 7.595 163.93 7.36 164.25 7.19C164.58 7.01 164.97 6.885 165.42 6.815C165.88 6.735 166.385 6.695 166.935 6.695C167.075 6.695 167.21 6.695 167.34 6.695C167.48 6.695 167.62 6.705 167.76 6.725C167.79 6.425 167.805 6.155 167.805 5.915C167.805 5.365 167.695 4.98 167.475 4.76C167.255 4.54 166.855 4.43 166.275 4.43C166.105 4.43 165.92 4.445 165.72 4.475C165.53 4.495 165.33 4.53 165.12 4.58C164.92 4.62 164.725 4.675 164.535 4.745C164.355 4.805 164.195 4.875 164.055 4.955L163.68 4.055ZM165.81 10.07C166.09 10.07 166.34 10.035 166.56 9.965C166.78 9.885 166.97 9.79 167.13 9.68C167.29 9.56 167.42 9.43 167.52 9.29C167.63 9.15 167.71 9.015 167.76 8.885V7.64C167.62 7.63 167.475 7.625 167.325 7.625C167.185 7.615 167.045 7.61 166.905 7.61C166.595 7.61 166.29 7.63 165.99 7.67C165.7 7.7 165.44 7.765 165.21 7.865C164.99 7.955 164.81 8.085 164.67 8.255C164.54 8.415 164.475 8.62 164.475 8.87C164.475 9.22 164.6 9.51 164.85 9.74C165.1 9.96 165.42 10.07 165.81 10.07ZM174.541 8.96C174.541 8.66 174.451 8.425 174.271 8.255C174.091 8.085 173.866 7.945 173.596 7.835C173.336 7.715 173.046 7.605 172.726 7.505C172.416 7.395 172.126 7.26 171.856 7.1C171.596 6.93 171.376 6.715 171.196 6.455C171.016 6.195 170.926 5.845 170.926 5.405C170.926 4.685 171.131 4.16 171.541 3.83C171.951 3.49 172.521 3.32 173.251 3.32C173.791 3.32 174.241 3.37 174.601 3.47C174.971 3.56 175.291 3.67 175.561 3.8L175.276 4.79C175.046 4.68 174.766 4.585 174.436 4.505C174.116 4.415 173.771 4.37 173.401 4.37C172.961 4.37 172.636 4.445 172.426 4.595C172.226 4.745 172.126 5.005 172.126 5.375C172.126 5.635 172.216 5.84 172.396 5.99C172.576 6.13 172.796 6.26 173.056 6.38C173.326 6.49 173.616 6.6 173.926 6.71C174.246 6.82 174.536 6.965 174.796 7.145C175.066 7.325 175.291 7.555 175.471 7.835C175.651 8.105 175.741 8.465 175.741 8.915C175.741 9.235 175.686 9.535 175.576 9.815C175.476 10.095 175.316 10.335 175.096 10.535C174.876 10.735 174.601 10.89 174.271 11C173.951 11.12 173.571 11.18 173.131 11.18C172.561 11.18 172.076 11.125 171.676 11.015C171.276 10.905 170.941 10.775 170.671 10.625L171.031 9.605C171.261 9.735 171.561 9.855 171.931 9.965C172.301 10.075 172.676 10.13 173.056 10.13C173.486 10.13 173.841 10.045 174.121 9.875C174.401 9.705 174.541 9.4 174.541 8.96ZM181.554 3.5H182.379L182.604 4.4H182.664C182.894 4.05 183.189 3.785 183.549 3.605C183.919 3.415 184.339 3.32 184.809 3.32C185.809 3.32 186.554 3.615 187.044 4.205C187.534 4.795 187.779 5.76 187.779 7.1C187.779 7.73 187.694 8.3 187.524 8.81C187.364 9.31 187.134 9.735 186.834 10.085C186.534 10.435 186.169 10.705 185.739 10.895C185.319 11.085 184.849 11.18 184.329 11.18C183.959 11.18 183.664 11.155 183.444 11.105C183.234 11.065 183.004 10.99 182.754 10.88V14H181.554V3.5ZM184.584 4.37C184.074 4.37 183.669 4.505 183.369 4.775C183.079 5.035 182.874 5.435 182.754 5.975V9.695C182.934 9.835 183.139 9.945 183.369 10.025C183.599 10.095 183.904 10.13 184.284 10.13C184.974 10.13 185.519 9.875 185.919 9.365C186.329 8.845 186.534 8.085 186.534 7.085C186.534 6.675 186.499 6.305 186.429 5.975C186.359 5.635 186.244 5.35 186.084 5.12C185.934 4.88 185.734 4.695 185.484 4.565C185.244 4.435 184.944 4.37 184.584 4.37ZM189.249 7.25C189.249 5.98 189.529 5.01 190.089 4.34C190.659 3.66 191.474 3.32 192.534 3.32C193.094 3.32 193.579 3.415 193.989 3.605C194.409 3.785 194.754 4.05 195.024 4.4C195.294 4.74 195.494 5.155 195.624 5.645C195.754 6.125 195.819 6.66 195.819 7.25C195.819 8.52 195.534 9.495 194.964 10.175C194.404 10.845 193.594 11.18 192.534 11.18C191.974 11.18 191.484 11.09 191.064 10.91C190.654 10.72 190.314 10.455 190.044 10.115C189.774 9.765 189.574 9.35 189.444 8.87C189.314 8.38 189.249 7.84 189.249 7.25ZM190.494 7.25C190.494 7.63 190.529 7.995 190.599 8.345C190.679 8.695 190.799 9 190.959 9.26C191.119 9.52 191.329 9.73 191.589 9.89C191.849 10.05 192.164 10.13 192.534 10.13C193.894 10.14 194.574 9.18 194.574 7.25C194.574 6.86 194.534 6.49 194.454 6.14C194.384 5.79 194.269 5.485 194.109 5.225C193.949 4.965 193.739 4.76 193.479 4.61C193.219 4.45 192.904 4.37 192.534 4.37C191.174 4.36 190.494 5.32 190.494 7.25ZM201.011 8.96C201.011 8.66 200.921 8.425 200.741 8.255C200.561 8.085 200.336 7.945 200.066 7.835C199.806 7.715 199.516 7.605 199.196 7.505C198.886 7.395 198.596 7.26 198.326 7.1C198.066 6.93 197.846 6.715 197.666 6.455C197.486 6.195 197.396 5.845 197.396 5.405C197.396 4.685 197.601 4.16 198.011 3.83C198.421 3.49 198.991 3.32 199.721 3.32C200.261 3.32 200.711 3.37 201.071 3.47C201.441 3.56 201.761 3.67 202.031 3.8L201.746 4.79C201.516 4.68 201.236 4.585 200.906 4.505C200.586 4.415 200.241 4.37 199.871 4.37C199.431 4.37 199.106 4.445 198.896 4.595C198.696 4.745 198.596 5.005 198.596 5.375C198.596 5.635 198.686 5.84 198.866 5.99C199.046 6.13 199.266 6.26 199.526 6.38C199.796 6.49 200.086 6.6 200.396 6.71C200.716 6.82 201.006 6.965 201.266 7.145C201.536 7.325 201.761 7.555 201.941 7.835C202.121 8.105 202.211 8.465 202.211 8.915C202.211 9.235 202.156 9.535 202.046 9.815C201.946 10.095 201.786 10.335 201.566 10.535C201.346 10.735 201.071 10.89 200.741 11C200.421 11.12 200.041 11.18 199.601 11.18C199.031 11.18 198.546 11.125 198.146 11.015C197.746 10.905 197.411 10.775 197.141 10.625L197.501 9.605C197.731 9.735 198.031 9.855 198.401 9.965C198.771 10.075 199.146 10.13 199.526 10.13C199.956 10.13 200.311 10.045 200.591 9.875C200.871 9.705 201.011 9.4 201.011 8.96ZM207.325 8.96C207.325 8.66 207.235 8.425 207.055 8.255C206.875 8.085 206.65 7.945 206.38 7.835C206.12 7.715 205.83 7.605 205.51 7.505C205.2 7.395 204.91 7.26 204.64 7.1C204.38 6.93 204.16 6.715 203.98 6.455C203.8 6.195 203.71 5.845 203.71 5.405C203.71 4.685 203.915 4.16 204.325 3.83C204.735 3.49 205.305 3.32 206.035 3.32C206.575 3.32 207.025 3.37 207.385 3.47C207.755 3.56 208.075 3.67 208.345 3.8L208.06 4.79C207.83 4.68 207.55 4.585 207.22 4.505C206.9 4.415 206.555 4.37 206.185 4.37C205.745 4.37 205.42 4.445 205.21 4.595C205.01 4.745 204.91 5.005 204.91 5.375C204.91 5.635 205 5.84 205.18 5.99C205.36 6.13 205.58 6.26 205.84 6.38C206.11 6.49 206.4 6.6 206.71 6.71C207.03 6.82 207.32 6.965 207.58 7.145C207.85 7.325 208.075 7.555 208.255 7.835C208.435 8.105 208.525 8.465 208.525 8.915C208.525 9.235 208.47 9.535 208.36 9.815C208.26 10.095 208.1 10.335 207.88 10.535C207.66 10.735 207.385 10.89 207.055 11C206.735 11.12 206.355 11.18 205.915 11.18C205.345 11.18 204.86 11.125 204.46 11.015C204.06 10.905 203.725 10.775 203.455 10.625L203.815 9.605C204.045 9.735 204.345 9.855 204.715 9.965C205.085 10.075 205.46 10.13 205.84 10.13C206.27 10.13 206.625 10.045 206.905 9.875C207.185 9.705 207.325 9.4 207.325 8.96ZM210.593 3.5H211.793V11H210.593V3.5ZM210.338 1.22C210.338 0.99 210.413 0.795 210.563 0.634999C210.723 0.465 210.923 0.38 211.163 0.38C211.403 0.38 211.608 0.465 211.778 0.634999C211.948 0.795 212.033 0.99 212.033 1.22C212.033 1.45 211.948 1.64 211.778 1.79C211.608 1.94 211.403 2.015 211.163 2.015C210.923 2.015 210.723 1.94 210.563 1.79C210.413 1.64 210.338 1.45 210.338 1.22ZM214.352 0.499999H215.552V4.235H215.612C215.842 3.945 216.132 3.72 216.482 3.56C216.842 3.4 217.232 3.32 217.652 3.32C218.622 3.32 219.347 3.63 219.827 4.25C220.317 4.87 220.562 5.83 220.562 7.13C220.562 8.44 220.242 9.435 219.602 10.115C218.962 10.795 218.062 11.135 216.902 11.135C216.342 11.135 215.832 11.075 215.372 10.955C214.922 10.835 214.582 10.705 214.352 10.565V0.499999ZM217.442 4.37C216.942 4.37 216.537 4.51 216.227 4.79C215.917 5.07 215.692 5.465 215.552 5.975V9.755C215.742 9.865 215.972 9.95 216.242 10.01C216.512 10.06 216.792 10.085 217.082 10.085C217.762 10.085 218.302 9.845 218.702 9.365C219.112 8.885 219.317 8.135 219.317 7.115C219.317 6.725 219.282 6.36 219.212 6.02C219.142 5.68 219.032 5.39 218.882 5.15C218.732 4.91 218.537 4.72 218.297 4.58C218.067 4.44 217.782 4.37 217.442 4.37ZM223.787 9.155C223.787 9.505 223.847 9.755 223.967 9.905C224.087 10.055 224.257 10.13 224.477 10.13C224.607 10.13 224.747 10.12 224.897 10.1C225.047 10.08 225.217 10.035 225.407 9.965L225.542 10.91C225.382 10.99 225.157 11.055 224.867 11.105C224.587 11.155 224.342 11.18 224.132 11.18C223.682 11.18 223.312 11.055 223.022 10.805C222.732 10.545 222.587 10.11 222.587 9.5V0.499999H223.787V9.155ZM232.307 10.4C232.007 10.64 231.627 10.83 231.167 10.97C230.717 11.11 230.237 11.18 229.727 11.18C229.157 11.18 228.662 11.09 228.242 10.91C227.822 10.72 227.477 10.455 227.207 10.115C226.937 9.765 226.737 9.35 226.607 8.87C226.477 8.39 226.412 7.85 226.412 7.25C226.412 5.97 226.697 4.995 227.267 4.325C227.837 3.655 228.652 3.32 229.712 3.32C230.052 3.32 230.392 3.36 230.732 3.44C231.072 3.51 231.377 3.65 231.647 3.86C231.917 4.07 232.137 4.37 232.307 4.76C232.477 5.14 232.562 5.645 232.562 6.275C232.562 6.605 232.532 6.97 232.472 7.37H227.657C227.657 7.81 227.702 8.2 227.792 8.54C227.882 8.88 228.022 9.17 228.212 9.41C228.402 9.64 228.647 9.82 228.947 9.95C229.257 10.07 229.632 10.13 230.072 10.13C230.412 10.13 230.752 10.07 231.092 9.95C231.432 9.83 231.687 9.69 231.857 9.53L232.307 10.4ZM229.727 4.37C229.137 4.37 228.662 4.525 228.302 4.835C227.952 5.145 227.742 5.675 227.672 6.425H231.392C231.392 5.665 231.247 5.135 230.957 4.835C230.667 4.525 230.257 4.37 229.727 4.37ZM235.199 0.499999H236.444V5.705L236.189 8.345H235.454L235.199 5.705V0.499999ZM234.944 10.31C234.944 10.04 235.019 9.83 235.169 9.68C235.329 9.52 235.539 9.44 235.799 9.44C236.069 9.44 236.284 9.52 236.444 9.68C236.604 9.83 236.684 10.04 236.684 10.31C236.684 10.57 236.604 10.78 236.444 10.94C236.284 11.1 236.069 11.18 235.799 11.18C235.539 11.18 235.329 11.1 235.169 10.94C235.019 10.78 234.944 10.57 234.944 10.31Z" fill="#2C2C2C"/>
</svg>
